<svg xmlns="http://www.w3.org/2000/svg" viewBox="0 0 128.66 115.81"><defs><style>.cls-1{fill:#464545;}</style></defs><title>Asset 2</title><g id="Layer_2" data-name="Layer 2"><g id="Layer_1-2" data-name="Layer 1"><path class="cls-1" d="M64.15,115.81H13.08A12.81,12.81,0,0,1,0,102.78V26A12.81,12.81,0,0,1,13,12.89c6.17,0,12.33,0,18.5,0a3.45,3.45,0,0,0,2.91-1.29c3.16-3.54,6.42-7,9.59-10.54A2.94,2.94,0,0,1,46.42,0Q64.32.06,82.21,0a2.9,2.9,0,0,1,2.42,1.07c3.07,3.44,6.25,6.8,9.31,10.25a4.23,4.23,0,0,0,3.58,1.61c6-.1,11.93,0,17.9,0a12.82,12.82,0,0,1,13.24,13.26v76.39a12.82,12.82,0,0,1-13.25,13.26ZM96.49,64.33c0-17.43-14.37-31.95-31.42-32.18A32.18,32.18,0,1,0,96.49,64.33Z"/><path class="cls-1" d="M64.4,84.87A20.52,20.52,0,1,1,84.85,64.43,20.28,20.28,0,0,1,64.4,84.87Z"/></g></g></svg>