<svg xmlns="http://www.w3.org/2000/svg" viewBox="0 0 115.78 116.02"><defs><style>.cls-1{fill:#464545;}.cls-2{fill:#fff;}</style></defs><title>Asset 3</title><g id="Layer_2" data-name="Layer 2"><g id="Layer_1-2" data-name="Layer 1"><path class="cls-1" d="M0,58.06C0,44.8,0,31.53,0,18.27.09,8.6,6.39,1.44,15.86.12a15.41,15.41,0,0,1,2-.11Q58.1,0,98.3,0c6.66,0,11.79,3,15.37,8.63a12.86,12.86,0,0,1,2,7.17c0,23.86-.09,47.72,0,71.58,0,3.88-.4,7.78,0,11.65.81,8.11-7,15.51-14.37,16.6a51.9,51.9,0,0,1-7.58.23l-73,.13c-5,0-9.82-.61-13.9-3.91C2.07,108.22,0,103.15,0,97,.06,84,0,71.05,0,58.06Z"/><path class="cls-2" d="M9.22,58.05c0-11.15,0-22.31,0-33.46A14.9,14.9,0,0,1,22.54,9.32a13.89,13.89,0,0,1,1.71-.09q33.81,0,67.63,0a14.68,14.68,0,0,1,12.93,7.26,10.81,10.81,0,0,1,1.71,6q-.06,30.09,0,60.2c0,3.26-.33,6.55,0,9.8.68,6.81-5.89,13-12.09,14a43.71,43.71,0,0,1-6.37.19l-61.39.11c-4.22,0-8.26-.51-11.69-3.29A15.29,15.29,0,0,1,9.2,90.82C9.25,79.9,9.21,69,9.22,58.05Z"/><path class="cls-1" d="M57.92,23.06H89.24a4.71,4.71,0,0,1,2.55.39c1.4.84,2.34,3.05,2.21,5.14-.15,2.33-1.41,4.29-3.06,4.69a5.57,5.57,0,0,1-1.29.09H26.21a5,5,0,0,1-1.76-.23c-1.68-.62-2.81-2.94-2.68-5.33s1.47-4.38,3.23-4.66a11.6,11.6,0,0,1,1.77-.08Z"/><path class="cls-1" d="M50.15,94.06c-7.83,0-15.66,0-23.5,0A4.85,4.85,0,0,1,22,90.21,5.52,5.52,0,0,1,24,84.6a5.11,5.11,0,0,1,3.22-.89q23,0,45.94,0A5.19,5.19,0,0,1,78.66,89c0,3.06-2.27,5.06-5.64,5.07q-11.44,0-22.87,0Z"/><path class="cls-1" d="M57.92,53.22H89.24a4.71,4.71,0,0,1,2.55.39c1.4.84,2.34,3.05,2.21,5.14-.15,2.33-1.41,4.29-3.06,4.69a5.57,5.57,0,0,1-1.29.09H26.21a5,5,0,0,1-1.76-.23c-1.68-.62-2.81-2.95-2.68-5.33s1.47-4.38,3.23-4.66a11.6,11.6,0,0,1,1.77-.08Z"/></g></g></svg>