<svg xmlns="http://www.w3.org/2000/svg" viewBox="0 0 158.16 116.02"><defs><style>.cls-1{fill:#464545;}</style></defs><title>Asset 1</title><g id="Layer_2" data-name="Layer 2"><g id="Layer_1-2" data-name="Layer 1"><path class="cls-1" d="M0,58.06C0,44.8,0,31.53,0,18.27.09,8.6,6.39,1.44,15.86.12a15.41,15.41,0,0,1,2-.11Q58.1,0,98.3,0c6.66,0,11.79,3,15.37,8.63a12.86,12.86,0,0,1,2,7.17c0,23.86-.09,47.72,0,71.58,0,3.88-.4,7.78,0,11.65.81,8.11-7,15.51-14.37,16.6a51.9,51.9,0,0,1-7.58.23l-73,.13c-5,0-9.82-.61-13.9-3.91C2.07,108.22,0,103.15,0,97,.06,84,0,71.05,0,58.06Zm57.91,33a33.16,33.16,0,1,0-33.1-33.31C24.7,76.73,40.68,91.29,57.93,91.1Z"/><path class="cls-1" d="M158.11,57.68c0,12.78-.09,25.56,0,38.34.05,4.52-3.82,8.14-8.73,5.33-7.16-4.1-14.56-7.79-21.89-11.6A2.43,2.43,0,0,1,126,87.22c0-18.52.09-37,0-55.57,0-2.93,1-4.51,3.54-5.84,6.94-3.64,13.86-7.36,20.56-11.41A5.17,5.17,0,0,1,158,19c-.16,12.9-.07,25.81-.07,38.72Z"/><path class="cls-1" d="M58.14,79.51A21.56,21.56,0,1,1,79.71,57.85,21.66,21.66,0,0,1,58.14,79.51Z"/></g></g></svg>